<svg width="112" height="123" viewBox="0 0 112 123" fill="none" xmlns="http://www.w3.org/2000/svg">
<path d="M51.1574 0.625497C57.6507 -1.40117 64.0374 1.85216 69.3707 5.3055C80.304 11.7322 91.3574 17.9855 102.317 24.3722C107.797 27.5055 111.331 33.6788 111.037 40.0122C110.997 54.7188 111.077 69.4122 110.997 84.1188C111.117 90.4255 107.051 96.0922 101.637 98.9988C89.2107 106.132 76.8507 113.386 64.4107 120.492C58.9174 123.799 51.7574 123.666 46.3174 120.332C33.7174 112.932 20.9707 105.759 8.38405 98.3322C2.98405 95.2522 -0.189286 88.9855 0.0107139 82.8255C0.0107139 68.5322 -0.00261942 54.2388 0.0107139 39.9322C-0.229286 33.3988 3.58405 27.0922 9.31738 24.0255C20.8774 17.3722 32.4507 10.7188 43.9707 3.99883C46.264 2.67883 48.5707 1.31883 51.1574 0.625497Z" fill="#00D945"/>
</svg>
