<svg width="67" height="63" viewBox="0 0 67 63" fill="none" xmlns="http://www.w3.org/2000/svg">
<path d="M41.0332 17.2513L38.2412 18.5099C37.5076 18.8398 36.6764 18.3041 36.6764 17.4993V7.382C36.6764 2.34168 31.4752 -1.02021 26.8785 1.04876L0.714294 12.8337V46.1228C0.714294 51.1629 5.91546 54.5248 10.5124 52.456L26.3479 45.3232L29.1399 44.0644C29.8735 43.7346 30.7047 44.2704 30.7047 45.0752V55.1897C30.7047 60.2301 35.9059 63.5919 40.5027 61.523L66.6641 49.7406V16.4517C66.6641 11.4114 61.4629 8.04948 56.8662 10.1184L41.0332 17.2513ZM60.6977 45.8826L36.6764 56.7019V42.6396C36.6764 42.0008 36.5657 41.3835 36.3651 40.8134C35.6129 38.6681 33.5679 37.1296 31.1639 37.1296C31.0081 37.1296 30.8552 37.1375 30.7047 37.1507C30.1902 37.1902 29.6967 37.3038 29.235 37.4779L28.5594 37.7813C28.5594 37.7813 28.5436 37.7919 28.5357 37.7946L6.68342 47.6348V16.6918L30.7074 5.87251V19.9322C30.7074 20.5709 30.8181 21.1883 31.0214 21.761C31.7734 23.9064 33.8159 25.4448 36.2199 25.4448C36.3755 25.4448 36.5286 25.4369 36.6791 25.4236C37.1936 25.3841 37.6896 25.2707 38.1515 25.0965L38.8113 24.8009L60.7004 14.9395V45.8826H60.6977Z" fill="url(#paint0_linear_66_88)"/>
<defs>
<linearGradient id="paint0_linear_66_88" x1="33.6892" y1="0.428725" x2="33.6892" y2="62.143" gradientUnits="userSpaceOnUse">
<stop stop-color="#12DFF3"/>
<stop offset="1" stop-color="#AFFCAF"/>
</linearGradient>
</defs>
</svg>
