<svg width="641" height="141" viewBox="0 0 641 141" fill="none" xmlns="http://www.w3.org/2000/svg">
<path d="M51.1574 0.625497C57.6507 -1.40117 64.0374 1.85216 69.3707 5.3055C80.304 11.7322 91.3574 17.9855 102.317 24.3722C107.797 27.5055 111.331 33.6788 111.037 40.0122C110.997 54.7188 111.077 69.4122 110.997 84.1188C111.117 90.4255 107.051 96.0922 101.637 98.9988C89.2107 106.132 76.8507 113.386 64.4107 120.492C58.9174 123.799 51.7574 123.666 46.3174 120.332C33.7174 112.932 20.9707 105.759 8.38405 98.3322C2.98405 95.2522 -0.189286 88.9855 0.0107139 82.8255C0.0107139 68.5322 -0.00261942 54.2388 0.0107139 39.9322C-0.229286 33.3988 3.58405 27.0922 9.31738 24.0255C20.8774 17.3722 32.4507 10.7188 43.9707 3.99883C46.264 2.67883 48.5707 1.31883 51.1574 0.625497Z" fill="#00D945"/>
<path d="M324.664 22.1855C330.997 18.5588 340.277 23.1322 340.144 30.7188C340.744 37.9322 332.651 43.5722 326.064 40.6255C317.957 38.3855 317.144 25.6655 324.664 22.1855Z" fill="#00D945"/>
<path d="M625.771 21.8122C632.531 18.5322 641.384 24.4388 640.264 32.0655C639.998 39.6522 630.438 43.8788 624.291 39.7988C617.398 35.9588 618.238 24.4388 625.771 21.8122Z" fill="#00D945"/>
<path d="M213.771 23.0255C227.064 20.3455 241.491 23.4388 252.157 31.9321C268.744 44.7721 274.557 69.3321 265.491 88.2521C260.637 99.2255 251.304 108.039 240.024 112.172C226.517 117.119 210.731 115.759 198.397 108.292C187.477 101.479 179.477 90.0121 177.264 77.2921C175.237 65.5321 177.424 52.8655 184.197 42.9321C190.904 32.6921 201.704 25.2521 213.771 23.0255ZM217.757 39.2255C210.024 40.6255 202.917 45.5855 199.211 52.5721C192.824 63.9588 193.704 79.6521 202.544 89.5188C212.277 100.665 231.277 101.519 242.024 91.3855C254.997 79.1055 254.211 55.1321 239.877 44.1988C233.704 39.3188 225.411 37.7855 217.757 39.2255Z" fill="#00D945"/>
<path d="M302.637 47.9055C306.437 45.3722 311.171 45.2388 315.597 45.3722C315.491 50.6122 315.464 55.8655 315.611 61.1189C310.677 61.6389 305.317 62.0255 301.411 65.4522C296.864 68.7989 295.184 74.6389 295.357 80.0655C295.424 91.1189 295.211 102.172 295.517 113.226C289.717 113.466 283.917 113.386 278.131 113.386C277.984 91.2122 277.904 69.0255 278.171 46.8388C283.704 46.9055 289.251 46.8922 294.797 46.8789C294.811 50.4389 294.837 53.9988 294.851 57.5588C296.944 53.9988 299.011 50.1455 302.637 47.9055Z" fill="#00D945"/>
<path d="M352.851 58.1721C360.597 47.2921 375.544 42.3721 388.211 46.6388C392.611 48.0121 395.677 51.6121 398.704 54.8655C398.797 52.2121 398.851 49.5455 398.917 46.8921C404.557 46.8921 410.184 46.8788 415.824 46.9055C415.811 67.3055 415.917 87.7055 415.784 108.105C415.797 118.332 411.144 128.772 402.504 134.545C392.544 141.292 379.717 141.745 368.264 139.385C361.091 137.705 353.837 134.252 349.504 128.092C352.624 123.759 356.157 119.692 359.904 115.892C365.397 121.052 372.277 124.959 380.064 124.652C390.784 125.559 399.397 115.159 398.664 104.865C395.064 107.599 391.997 111.372 387.477 112.612C377.357 115.385 365.797 113.265 357.864 106.225C344.251 94.6255 342.371 72.4255 352.851 58.1721ZM375.104 61.7721C362.984 65.3855 360.131 82.1321 367.131 91.5455C372.264 98.6921 382.971 99.7588 390.411 95.8788C401.384 89.8788 402.331 72.3588 392.757 64.6521C387.931 60.6121 380.957 60.1055 375.104 61.7721Z" fill="#00D945"/>
<path d="M431.731 57.1189C439.997 46.9189 454.891 42.4255 467.224 47.3455C471.544 49.0388 474.517 52.7188 477.264 56.2788C477.331 53.1322 477.357 49.9855 477.411 46.8388C483.104 46.9055 488.797 46.8788 494.491 46.9055C494.531 69.0522 494.451 91.1988 494.531 113.346C489.011 113.399 483.477 113.386 477.957 113.399C477.877 109.879 477.851 106.372 478.117 102.866C475.064 107.039 471.744 111.492 466.731 113.386C454.064 117.959 438.944 113.212 430.917 102.479C420.557 89.6655 420.917 69.5322 431.731 57.1189ZM453.757 61.7988C441.037 65.2255 436.624 82.8255 444.784 92.6255C450.771 100.746 463.664 101.572 471.224 95.2522C478.104 89.5589 479.637 78.8922 475.664 71.0788C471.944 63.1055 462.064 59.1188 453.757 61.7988Z" fill="#00D945"/>
<path d="M521.731 56.0255C527.771 45.0788 542.851 42.6122 553.464 47.8655C557.771 49.8255 560.944 53.4655 563.891 57.0522C571.011 44.7455 588.584 41.8388 600.197 49.2255C607.717 54.0922 611.797 63.1455 611.664 71.9588C611.731 85.7455 611.571 99.5188 611.731 113.306C605.997 113.426 600.264 113.399 594.531 113.372C594.411 100.892 594.637 88.4122 594.424 75.9455C594.411 70.5722 592.664 64.4522 587.557 61.8388C581.704 59.0255 573.411 60.0522 569.691 65.7988C567.424 70.1722 567.584 75.2788 567.491 80.0655C567.584 91.1322 567.384 102.199 567.624 113.252C561.877 113.452 556.131 113.399 550.384 113.372C550.237 101.359 550.397 89.3322 550.317 77.3055C550.264 72.4655 549.437 67.0788 545.664 63.6655C540.157 59.0655 530.837 59.1055 525.997 64.7055C522.411 68.4122 522.091 73.8655 522.144 78.7455C522.251 90.2388 522.051 101.759 522.291 113.266C516.491 113.452 510.704 113.386 504.917 113.386C504.824 91.2122 504.744 69.0388 504.957 46.8655C510.557 46.9055 516.157 46.9055 521.757 46.8655C521.784 49.9055 521.811 52.9722 521.731 56.0255Z" fill="#00D945"/>
<path d="M321.224 46.8788C326.984 46.8922 332.731 46.8788 338.491 46.9055C338.544 69.0522 338.451 91.1988 338.544 113.346C332.757 113.412 326.971 113.399 321.197 113.372C321.171 91.2122 321.117 69.0388 321.224 46.8788Z" fill="#00D945"/>
<path d="M621.384 46.8522C627.131 46.9055 632.877 46.9055 638.637 46.8522C638.731 69.0255 638.651 91.2122 638.677 113.386C632.891 113.386 627.117 113.386 621.344 113.386C621.357 91.2122 621.291 69.0255 621.384 46.8522Z" fill="#00D945"/>
</svg>
