<svg width="211" height="63" viewBox="0 0 211 63" fill="none" xmlns="http://www.w3.org/2000/svg">
<path d="M41.0332 17.2513L38.2412 18.5099C37.5076 18.8398 36.6764 18.3041 36.6764 17.4993V7.382C36.6764 2.34168 31.4752 -1.02021 26.8785 1.04876L0.714294 12.8337V46.1228C0.714294 51.1629 5.91546 54.5248 10.5124 52.456L26.3479 45.3232L29.1399 44.0644C29.8735 43.7346 30.7047 44.2704 30.7047 45.0752V55.1897C30.7047 60.2301 35.9059 63.5919 40.5027 61.523L66.6641 49.7406V16.4517C66.6641 11.4114 61.4629 8.04948 56.8662 10.1184L41.0332 17.2513ZM60.6977 45.8826L36.6764 56.7019V42.6396C36.6764 42.0008 36.5657 41.3835 36.3651 40.8134C35.6129 38.6681 33.5679 37.1296 31.1639 37.1296C31.0081 37.1296 30.8552 37.1375 30.7047 37.1507C30.1902 37.1902 29.6967 37.3038 29.235 37.4779L28.5594 37.7813C28.5594 37.7813 28.5436 37.7919 28.5357 37.7946L6.68342 47.6348V16.6918L30.7074 5.87251V19.9322C30.7074 20.5709 30.8181 21.1883 31.0214 21.761C31.7734 23.9064 33.8159 25.4448 36.2199 25.4448C36.3755 25.4448 36.5286 25.4369 36.6791 25.4236C37.1936 25.3841 37.6896 25.2707 38.1515 25.0965L38.8113 24.8009L60.7004 14.9395V45.8826H60.6977Z" fill="url(#paint0_linear_71_93)"/>
<path d="M83.6369 29.2031H102.491V17.1021H107.86V46.7145H102.491V34.6135H83.6369V46.7145H78.2679V17.1021H83.6369V29.2031ZM143.213 46.7145H137.843V39.4455H118.97V46.7145H113.601V31.9083C113.601 29.7469 113.972 27.7576 114.716 25.9403C115.459 24.123 116.492 22.5605 117.813 21.2527C119.135 19.9448 120.697 18.9261 122.501 18.1965C124.304 17.4667 126.273 17.1021 128.407 17.1021H140.509C140.879 17.1021 141.23 17.1709 141.562 17.3084C141.892 17.4461 142.181 17.639 142.428 17.8866C142.676 18.1344 142.869 18.4235 143.006 18.7541C143.145 19.0844 143.213 19.4354 143.213 19.8073V46.7145ZM118.97 34.0766H137.843V22.471H128.407C128.242 22.471 127.89 22.4986 127.354 22.5537C126.831 22.595 126.218 22.7119 125.516 22.9047C124.827 23.0974 124.098 23.3934 123.327 23.7927C122.556 24.1919 121.847 24.7427 121.2 25.4447C120.553 26.1469 120.016 27.0278 119.589 28.088C119.176 29.1342 118.97 30.4076 118.97 31.9083V34.0766ZM178.98 29.4922C178.98 30.7174 178.828 31.8118 178.525 32.7755C178.222 33.7393 177.809 34.5928 177.287 35.3361C176.777 36.0659 176.185 36.6923 175.51 37.2153C174.835 37.7385 174.126 38.1653 173.383 38.4957C172.654 38.8261 171.91 39.0669 171.154 39.2185C170.409 39.3699 169.707 39.4455 169.046 39.4455H156.904V34.0766H169.046C169.734 34.0214 170.355 33.8837 170.905 33.6635C171.47 33.4295 171.952 33.1198 172.351 32.7343C172.751 32.3488 173.059 31.8876 173.279 31.3507C173.501 30.7999 173.611 30.1805 173.611 29.4922V27.0554C173.541 26.3808 173.397 25.7613 173.177 25.1968C172.957 24.6325 172.654 24.1506 172.268 23.7514C171.896 23.3522 171.441 23.0424 170.905 22.8222C170.369 22.5881 169.748 22.471 169.046 22.471H156.946C156.23 22.471 155.687 22.6569 155.314 23.0285C154.942 23.4004 154.757 23.9373 154.757 24.6393V46.7145H149.388V24.6393C149.388 23.2627 149.635 22.0924 150.13 21.1287C150.64 20.165 151.266 19.3872 152.011 18.7953C152.767 18.2033 153.586 17.7765 154.468 17.515C155.349 17.2396 156.161 17.1021 156.904 17.1021H169.046C170.259 17.1021 171.345 17.2604 172.309 17.5769C173.273 17.8798 174.12 18.2927 174.849 18.816C175.593 19.3253 176.218 19.9174 176.729 20.5918C177.252 21.2664 177.678 21.9754 178.008 22.7188C178.353 23.4486 178.6 24.1919 178.752 24.949C178.903 25.6925 178.98 26.3947 178.98 27.0554V29.4922ZM207.932 34.6135H190.978V29.2031H207.932V34.6135ZM210.348 46.7145H190.978C190.233 46.7145 189.421 46.5837 188.54 46.3222C187.658 46.0605 186.841 45.6337 186.083 45.0418C185.34 44.4361 184.714 43.6583 184.204 42.7083C183.709 41.7446 183.46 40.5676 183.46 39.1771V19.8073C183.46 19.4354 183.529 19.0844 183.666 18.7541C183.805 18.4235 183.99 18.1344 184.224 17.8866C184.472 17.639 184.762 17.4461 185.092 17.3084C185.421 17.1709 185.78 17.1021 186.166 17.1021H210.348V22.471H188.829V39.1771C188.829 39.8793 189.016 40.4162 189.386 40.7878C189.759 41.1596 190.303 41.3453 191.018 41.3453H210.348V46.7145Z" fill="url(#paint1_linear_71_93)"/>
<defs>
<linearGradient id="paint0_linear_71_93" x1="33.6892" y1="0.428725" x2="33.6892" y2="62.143" gradientUnits="userSpaceOnUse">
<stop stop-color="#12DFF3"/>
<stop offset="1" stop-color="#AFFCAF"/>
</linearGradient>
<linearGradient id="paint1_linear_71_93" x1="144.538" y1="4.28592" x2="144.538" y2="58.2859" gradientUnits="userSpaceOnUse">
<stop stop-color="#12DFF3"/>
<stop offset="1" stop-color="#AFFCAF"/>
</linearGradient>
</defs>
</svg>
